<?xml version="1.0" encoding="utf-8"?>
<!-- Generator: Adobe Illustrator 26.3.1, SVG Export Plug-In . SVG Version: 6.00 Build 0)  -->
<svg version="1.1" id="Warstwa_1" xmlns="http://www.w3.org/2000/svg" xmlns:xlink="http://www.w3.org/1999/xlink" x="0px" y="0px"
	 viewBox="0 0 226.4 226.4" style="enable-background:new 0 0 226.4 226.4;" xml:space="preserve">
<style type="text/css">
	.st0{fill:#FFFFFF;}
</style>
<path class="st0" d="M130.8,113.2l92.1-92.1c4.7-4.7,4.7-12.3,0-17l-0.6-0.6c-4.7-4.7-12.3-4.7-17,0l-92.1,92.1L21.1,3.5
	c-4.7-4.7-12.3-4.7-17,0L3.5,4.1c-4.7,4.7-4.7,12.3,0,17l92.1,92.1L3.5,205.3c-4.7,4.7-4.7,12.3,0,17l0.6,0.6c4.7,4.7,12.3,4.7,17,0
	l92.1-92.1l92.1,92.1c4.7,4.7,12.3,4.7,17,0l0.6-0.6c4.7-4.7,4.7-12.3,0-17L130.8,113.2z"/>
</svg>
